<svg xmlns="http://www.w3.org/2000/svg" width="520" height="460" viewBox="0 0 520 460" font-family="ui-monospace, SFMono-Regular, Menlo, Consolas, monospace"><defs><linearGradient id="ibg" x1="0" y1="0" x2="0" y2="1"><stop offset="0" stop-color="#111722"/><stop offset="1" stop-color="#0d1117"/></linearGradient></defs><rect width="520" height="460" rx="12" fill="url(#ibg)"/><rect x="0.5" y="0.5" width="519" height="459" rx="12" fill="none" stroke="#30363d"/><line x1="0" y1="36" x2="520" y2="36" stroke="#30363d"/><circle cx="24" cy="18.0" r="5" fill="#ff5f56"/><circle cx="40" cy="18.0" r="5" fill="#ffbd2e"/><circle cx="56" cy="18.0" r="5" fill="#27c93f"/><text x="260.0" y="23.0" fill="#7d8590" font-size="14" text-anchor="middle">shivam@github: ~$ neofetch</text><g><text x="24" y="66.0" font-size="16" font-weight="700"><tspan fill="#3fb950">shivam</tspan><tspan fill="#7d8590">@</tspan><tspan fill="#22d3ee">github</tspan></text><line x1="149" y1="62.0" x2="496" y2="62.0" stroke="#30363d" stroke-opacity="0.8"/></g><g><text x="24" y="90.0" fill="#ffa657" font-size="15" font-weight="700">Now</text><text x="124" y="90.0" fill="#c9d1d9" font-size="15">AI Engineer &amp; Builder</text></g><g><text x="24" y="114.0" fill="#ffa657" font-size="15" font-weight="700">Focus</text><text x="124" y="114.0" fill="#c9d1d9" font-size="15">Agentic Systems, Harness, Loops</text></g><g><text x="24" y="138.0" fill="#ffa657" font-size="15" font-weight="700">OSS</text><text x="124" y="138.0" fill="#c9d1d9" font-size="15">50+ merged PRs (Kubeflow, Ray, T3MP3ST)</text></g><g><text x="24" y="162.0" fill="#ffa657" font-size="15" font-weight="700">Edu</text><text x="124" y="162.0" fill="#c9d1d9" font-size="15">B.Tech CSE À C4GT&#x27;26</text></g><g><text x="24" y="198.0" fill="#58a6ff" font-size="15" font-weight="700">&#8212; Stack</text><line x1="83" y1="194.0" x2="496" y2="194.0" stroke="#30363d" stroke-opacity="0.8"/></g><g><text x="24" y="222.0" fill="#ffa657" font-size="15" font-weight="700">Languages</text><text x="124" y="222.0" fill="#c9d1d9" font-size="15">Python, C++, TypeScript</text></g><g><text x="24" y="246.0" fill="#ffa657" font-size="15" font-weight="700">AI / ML</text><text x="124" y="246.0" fill="#c9d1d9" font-size="15">OpenAI, LangChain, Claude, Gemini</text></g><g><text x="24" y="270.0" fill="#ffa657" font-size="15" font-weight="700">Frameworks</text><text x="124" y="270.0" fill="#c9d1d9" font-size="15">FastAPI, Next.js, Node.js</text></g><g><text x="24" y="294.0" fill="#ffa657" font-size="15" font-weight="700">Infra</text><text x="124" y="294.0" fill="#c9d1d9" font-size="15">Docker, PostgreSQL, Redis, GCP</text></g><g><text x="24" y="330.0" fill="#58a6ff" font-size="15" font-weight="700">&#8212; Projects</text><line x1="110" y1="326.0" x2="496" y2="326.0" stroke="#30363d" stroke-opacity="0.8"/></g><g><circle cx="27" cy="350.0" r="3" fill="#3fb950"/><text x="40" y="354.0" fill="#c9d1d9" font-size="15">SHARP ù The Harness System</text></g><g><circle cx="27" cy="374.0" r="3" fill="#3fb950"/><text x="40" y="378.0" fill="#c9d1d9" font-size="15">Nexus ù Multi-Agent Orchestrator</text></g><g><circle cx="27" cy="398.0" r="3" fill="#3fb950"/><text x="40" y="402.0" fill="#c9d1d9" font-size="15">SCOUT ù Agentic LOOP</text></g><g><circle cx="27" cy="422.0" r="3" fill="#3fb950"/><text x="40" y="426.0" fill="#c9d1d9" font-size="15">Veritas ù RAG Pipeline</text></g></svg>