<svg xmlns="http://www.w3.org/2000/svg" width="480" height="400" viewBox="0 0 480 400" font-family="ui-monospace, SFMono-Regular, Menlo, Consolas, monospace"><defs><linearGradient id="ibg" x1="0" y1="0" x2="0" y2="1"><stop offset="0" stop-color="#111722"/><stop offset="1" stop-color="#0d1117"/></linearGradient></defs><rect width="480" height="400" rx="12" fill="url(#ibg)"/><rect x="0.5" y="0.5" width="479" height="399" rx="12" fill="none" stroke="#30363d"/><line x1="0" y1="30" x2="480" y2="30" stroke="#30363d"/><circle cx="20" cy="15.0" r="5" fill="#ff5f56"/><circle cx="36" cy="15.0" r="5" fill="#ffbd2e"/><circle cx="52" cy="15.0" r="5" fill="#27c93f"/><text x="240.0" y="19.0" fill="#7d8590" font-size="12" text-anchor="middle">shivam@github: ~$ neofetch</text><g><text x="20" y="60.0" font-size="14" font-weight="700"><tspan fill="#3fb950">shivam</tspan><tspan fill="#7d8590">@</tspan><tspan fill="#22d3ee">github</tspan></text><line x1="132" y1="56.0" x2="460" y2="56.0" stroke="#30363d" stroke-opacity="0.8"/></g><g><text x="20" y="80.5" fill="#ffa657" font-size="12.5" font-weight="700">Now</text><text x="112" y="80.5" fill="#c9d1d9" font-size="12.5">AI Engineer &amp; Builder</text></g><g><text x="20" y="101.0" fill="#ffa657" font-size="12.5" font-weight="700">Focus</text><text x="112" y="101.0" fill="#c9d1d9" font-size="12.5">Agentic Systems, Harness, Loops</text></g><g><text x="20" y="121.5" fill="#ffa657" font-size="12.5" font-weight="700">OSS</text><text x="112" y="121.5" fill="#c9d1d9" font-size="12.5">50+ merged PRs (Kubeflow, Ray, T3MP3ST)</text></g><g><text x="20" y="142.0" fill="#ffa657" font-size="12.5" font-weight="700">Edu</text><text x="112" y="142.0" fill="#c9d1d9" font-size="12.5">B.Tech CSE À C4GT&#x27;26</text></g><g><text x="20" y="172.8" fill="#58a6ff" font-size="12.5" font-weight="700">&#8212; Stack</text><line x1="72" y1="168.8" x2="460" y2="168.8" stroke="#30363d" stroke-opacity="0.8"/></g><g><text x="20" y="193.2" fill="#ffa657" font-size="12.5" font-weight="700">Languages</text><text x="112" y="193.2" fill="#c9d1d9" font-size="12.5">Python, C++, TypeScript</text></g><g><text x="20" y="213.8" fill="#ffa657" font-size="12.5" font-weight="700">AI / ML</text><text x="112" y="213.8" fill="#c9d1d9" font-size="12.5">OpenAI, LangChain, Claude, Gemini</text></g><g><text x="20" y="234.2" fill="#ffa657" font-size="12.5" font-weight="700">Frameworks</text><text x="112" y="234.2" fill="#c9d1d9" font-size="12.5">FastAPI, Next.js, Node.js</text></g><g><text x="20" y="254.8" fill="#ffa657" font-size="12.5" font-weight="700">Infra</text><text x="112" y="254.8" fill="#c9d1d9" font-size="12.5">Docker, PostgreSQL, Redis, GCP</text></g><g><text x="20" y="285.5" fill="#58a6ff" font-size="12.5" font-weight="700">&#8212; Projects</text><line x1="96" y1="281.5" x2="460" y2="281.5" stroke="#30363d" stroke-opacity="0.8"/></g><g><circle cx="23" cy="302.0" r="2.5" fill="#3fb950"/><text x="34" y="306.0" fill="#c9d1d9" font-size="12.5">SHARP ù The Harness System</text></g><g><circle cx="23" cy="322.5" r="2.5" fill="#3fb950"/><text x="34" y="326.5" fill="#c9d1d9" font-size="12.5">Nexus ù Multi-Agent Orchestrator</text></g><g><circle cx="23" cy="343.0" r="2.5" fill="#3fb950"/><text x="34" y="347.0" fill="#c9d1d9" font-size="12.5">SCOUT ù Agentic LOOP</text></g><g><circle cx="23" cy="363.5" r="2.5" fill="#3fb950"/><text x="34" y="367.5" fill="#c9d1d9" font-size="12.5">Veritas ù RAG Pipeline</text></g></svg>